<svg xmlns="http://www.w3.org/2000/svg" width="96" height="96" viewBox="0 0 96 96">
  <rect x="8" y="8" width="80" height="80" rx="24" fill="#0A66C2"/>
  <path d="M28 58L38 48L28 38M38 48H58M68 38L58 48L68 58" fill="none" stroke="#BFE0FF" stroke-width="5" stroke-linecap="round" stroke-linejoin="round"/>
  <circle cx="25" cy="38" r="7" fill="#FFFFFF"/>
  <circle cx="25" cy="58" r="7" fill="#FFFFFF"/>
  <circle cx="71" cy="38" r="7" fill="#FFFFFF"/>
  <circle cx="71" cy="58" r="7" fill="#FFFFFF"/>
  <rect x="34" y="39" width="28" height="23" rx="6" fill="#FFFFFF"/>
  <path d="M42 39V35C42 31.7 44.7 29 48 29C51.3 29 54 31.7 54 35V39" fill="none" stroke="#FFFFFF" stroke-width="5" stroke-linecap="round"/>
  <path d="M35 50C40 52 44.5 53 48 53C51.5 53 56 52 61 50" fill="none" stroke="#0A66C2" stroke-width="4" stroke-linecap="round"/>
  <rect x="45" y="49" width="6" height="9" rx="2" fill="#0A66C2"/>
</svg>
